<svg width="356" height="121" viewBox="0 0 356 121" fill="none" xmlns="http://www.w3.org/2000/svg">
<rect width="356" height="121" rx="10" fill="white"/>
<path d="M38.625 104.25C36.2187 104.25 34.1596 103.394 32.4475 101.682C30.7354 99.9698 29.8779 97.9092 29.875 95.5C29.8721 93.0908 30.7296 91.0317 32.4475 89.3225C34.1654 87.6133 36.2246 86.7558 38.625 86.75C41.0254 86.7442 43.086 87.6017 44.8069 89.3225C46.5277 91.0433 47.3838 93.1025 47.375 95.5C47.3662 97.8975 46.5102 99.9581 44.8069 101.682C43.1035 103.406 41.0429 104.262 38.625 104.25ZM82.375 104.25C79.9687 104.25 77.9096 103.394 76.1975 101.682C74.4854 99.9698 73.6279 97.9092 73.625 95.5C73.6221 93.0908 74.4796 91.0317 76.1975 89.3225C77.9154 87.6133 79.9746 86.7558 82.375 86.75C84.7754 86.7442 86.836 87.6017 88.5569 89.3225C90.2777 91.0433 91.1338 93.1025 91.125 95.5C91.1162 97.8975 90.2602 99.9581 88.5569 101.682C86.8535 103.406 84.7929 104.262 82.375 104.25ZM30.75 25.5H95.2813C96.9583 25.5 98.2344 26.2481 99.1094 27.7444C99.9844 29.2406 100.021 30.7529 99.2188 32.2813L83.6875 60.2812C82.8854 61.7396 81.8106 62.8698 80.4631 63.6719C79.1156 64.474 77.6383 64.875 76.0313 64.875H43.4375L38.625 73.625H91.125V82.375H38.625C35.3438 82.375 32.8646 80.9356 31.1875 78.0569C29.5104 75.1781 29.4375 72.3154 30.9688 69.4688L36.875 58.75L21.125 25.5H12.375V16.75H26.5938L30.75 25.5Z" fill="#02A4FA"/>
<path d="M135.734 42.434V49.5H121.642V42.434H124.814L130.314 24.6286H126.119V17.5626H146.012L153.138 42.434H156.29V49.5H138.324V42.434H140.933L140.07 39.0215H132.823L131.92 42.434H135.734ZM139.107 34.1636L136.778 24.3877L133.847 34.1636H139.107ZM165.805 49.8613C161.496 49.8613 159.341 47.1647 159.341 41.7716V34.2038H156.751V28.7839L168.956 27.5794V41.7716C168.956 42.2935 169.15 42.7753 169.538 43.2169C169.927 43.6451 170.382 43.8593 170.903 43.8593C171.506 43.8593 171.974 43.6585 172.309 43.2571C172.657 42.8422 172.831 42.3337 172.831 41.7314V34.2038H170.903V28.7839L182.446 27.5794V43.4578H185.035V49.5H172.831V46.3685C172.121 47.4659 171.171 48.3223 169.98 48.9379C168.802 49.5535 167.411 49.8613 165.805 49.8613ZM204.447 43.4578V49.5H188.207V43.4578H191.74V24.9498H188.207V19.4897L201.355 18.1648V43.4578H204.447ZM137.561 99.0821C136.464 99.0821 135.527 99.0018 134.751 98.8413C133.974 98.6807 133.252 98.4197 132.583 98.0584C131.927 97.697 131.224 97.2287 130.475 96.6532L129.772 98.5H123.288V88.7241H129.732C130.147 89.8482 130.783 90.6445 131.639 91.1128C132.509 91.5679 133.573 91.7954 134.831 91.7954C135.607 91.7954 136.269 91.6415 136.818 91.3337C137.367 91.0125 137.641 90.5909 137.641 90.069C137.641 89.4133 137.36 88.9248 136.798 88.6036C136.236 88.2691 135.446 87.9613 134.429 87.6802C133.131 87.3323 131.954 86.9643 130.896 86.5762C129.853 86.1881 128.916 85.7866 128.086 85.3717C126.427 84.542 125.088 83.3644 124.071 81.8388C123.054 80.3132 122.546 78.2857 122.546 75.7564C122.546 73.8159 122.967 72.103 123.81 70.6175C124.64 69.1454 125.831 68.0012 127.383 67.1849C128.949 66.3552 130.789 65.9403 132.904 65.9403C135.487 65.9403 137.527 66.7633 139.026 68.4094L140.05 66.5225H145.811V76.0977H139.649C139.073 74.8932 138.437 74.0568 137.742 73.5884C137.046 73.12 136.089 72.8859 134.871 72.8859C133.948 72.8859 133.232 73.0531 132.723 73.3877C132.215 73.7089 131.96 74.1572 131.96 74.7326C131.96 75.375 132.328 75.8635 133.064 76.198C133.787 76.546 134.817 76.8672 136.156 77.1616C138.498 77.6969 140.518 78.3727 142.218 79.189C143.877 80.0054 145.202 81.1629 146.193 82.6618C147.196 84.1472 147.698 86.0676 147.698 88.423C147.698 90.417 147.283 92.2236 146.454 93.8429C145.61 95.4622 144.413 96.7402 142.86 97.677C141.321 98.6138 139.555 99.0821 137.561 99.0821ZM165.303 98.5H151.151V92.4578H153.7V73.9498H151.151V68.4897L163.356 67.1648V80.1325C163.878 79.1689 164.788 78.3392 166.086 77.6433C167.397 76.9341 168.849 76.5794 170.442 76.5794C172.77 76.5794 174.53 77.2686 175.721 78.647C176.912 80.012 177.508 81.9324 177.508 84.4082V92.4578H180.057V98.5H167.832V85.3918C167.832 84.5889 167.598 83.9264 167.13 83.4045C166.675 82.8826 166.146 82.6216 165.544 82.6216C164.861 82.6216 164.326 82.8558 163.938 83.3242C163.55 83.7926 163.356 84.4216 163.356 85.2112V92.4578H165.303V98.5ZM194.049 98.8613C191.613 98.8613 189.492 98.413 187.685 97.5164C185.852 96.6331 184.426 95.335 183.409 93.6221C182.392 91.9091 181.884 89.875 181.884 87.5196C181.884 85.1777 182.392 83.1904 183.409 81.5577C184.426 79.9117 185.852 78.6738 187.685 77.8441C189.519 77.001 191.64 76.5794 194.049 76.5794C196.524 76.5794 198.672 77.0077 200.492 77.8641C202.326 78.7206 203.744 79.9652 204.748 81.5979C205.752 83.2172 206.253 85.1911 206.253 87.5196C206.253 89.875 205.752 91.9091 204.748 93.6221C203.731 95.335 202.299 96.6398 200.452 97.5365C198.619 98.4197 196.484 98.8613 194.049 98.8613ZM194.049 92.9998C194.932 92.9998 195.587 92.5649 196.016 91.695C196.431 90.8519 196.638 89.4601 196.638 87.5196C196.638 85.7398 196.431 84.455 196.016 83.6655C195.614 82.8625 194.959 82.461 194.049 82.461C193.179 82.461 192.536 82.8625 192.121 83.6655C191.707 84.455 191.499 85.7398 191.499 87.5196C191.499 89.42 191.713 90.8117 192.141 91.695C192.57 92.5649 193.205 92.9998 194.049 92.9998ZM223.858 106.469H209.064V100.387H211.653V83.2038H209.064V77.824L221.269 76.5794V79.992C221.951 79.0418 222.834 78.2389 223.918 77.5831C225.002 76.914 226.274 76.5794 227.732 76.5794C229.646 76.5794 231.279 77.0746 232.63 78.0649C233.982 79.0552 234.992 80.3868 235.661 82.0596C236.344 83.7324 236.685 85.5926 236.685 87.6401C236.685 89.6742 236.351 91.5545 235.682 93.2808C235.012 94.9804 233.995 96.3387 232.63 97.3558C231.279 98.3595 229.633 98.8613 227.692 98.8613C226.341 98.8613 225.109 98.6004 223.999 98.0785C222.901 97.5431 221.991 96.8874 221.269 96.1112V100.427H223.858V106.469ZM224.159 92.9998C225.364 92.9998 226.254 92.518 226.829 91.5545C227.404 90.5909 227.692 89.3263 227.692 87.7605C227.692 86.1546 227.378 84.8699 226.749 83.9064C226.12 82.9428 225.297 82.461 224.28 82.461C223.597 82.461 222.982 82.635 222.433 82.983C221.884 83.3175 221.496 83.7592 221.269 84.3078V91.2734C221.871 92.4243 222.834 92.9998 224.159 92.9998ZM254.21 106.469H239.415V100.387H242.005V83.2038H239.415V77.824L251.62 76.5794V79.992C252.303 79.0418 253.186 78.2389 254.27 77.5831C255.354 76.914 256.625 76.5794 258.084 76.5794C259.998 76.5794 261.63 77.0746 262.982 78.0649C264.334 79.0552 265.344 80.3868 266.013 82.0596C266.696 83.7324 267.037 85.5926 267.037 87.6401C267.037 89.6742 266.702 91.5545 266.033 93.2808C265.364 94.9804 264.347 96.3387 262.982 97.3558C261.63 98.3595 259.984 98.8613 258.044 98.8613C256.692 98.8613 255.461 98.6004 254.35 98.0785C253.253 97.5431 252.343 96.8874 251.62 96.1112V100.427H254.21V106.469ZM254.511 92.9998C255.715 92.9998 256.605 92.518 257.181 91.5545C257.756 90.5909 258.044 89.3263 258.044 87.7605C258.044 86.1546 257.729 84.8699 257.1 83.9064C256.471 82.9428 255.648 82.461 254.631 82.461C253.949 82.461 253.333 82.635 252.784 82.983C252.236 83.3175 251.848 83.7592 251.62 84.3078V91.2734C252.222 92.4243 253.186 92.9998 254.511 92.9998ZM277.636 74.8932C275.963 74.8932 274.585 74.4984 273.501 73.7089C272.417 72.9193 271.875 71.7818 271.875 70.2963C271.875 68.8109 272.417 67.6867 273.501 66.9239C274.585 66.1611 275.976 65.7797 277.676 65.7797C279.375 65.7797 280.754 66.1544 281.811 66.9039C282.882 67.6533 283.417 68.7841 283.417 70.2963C283.417 71.7818 282.868 72.9193 281.771 73.7089C280.687 74.4984 279.309 74.8932 277.636 74.8932ZM285.023 92.4578V98.5H270.229V92.4578H272.818V83.2038H270.229V78.2656L282.433 77.001V92.4578H285.023ZM314.692 84.8498V92.6987H317.482V98.5H305.057V84.8097C305.057 84.2342 304.869 83.7257 304.494 83.2841C304.133 82.8424 303.692 82.6216 303.17 82.6216C302.193 82.6216 301.577 83.1101 301.323 84.087C301.055 85.0907 300.921 86.4959 300.921 88.3025V92.6987H300.961V98.5H288.415V92.6987H291.326V83.2038H288.415V77.7839L300.921 76.5794V79.5905C301.845 78.4931 302.895 77.7169 304.073 77.2619C305.251 76.8069 306.582 76.5794 308.068 76.5794C312.484 76.5794 314.692 79.3362 314.692 84.8498ZM331.193 106.309C328.329 106.309 325.311 105.901 322.139 105.084V99.2829C323.919 99.8316 325.391 100.246 326.556 100.527C327.72 100.822 328.864 100.969 329.988 100.969C333.227 100.969 334.846 99.3632 334.846 96.1514C334.11 96.8071 333.207 97.3625 332.136 97.8175C331.065 98.2725 329.854 98.5 328.503 98.5C326.562 98.5 324.923 98.0115 323.585 97.0346C322.246 96.0711 321.236 94.7663 320.553 93.1202C319.884 91.4742 319.55 89.6475 319.55 87.6401C319.55 85.5792 319.891 83.719 320.574 82.0596C321.256 80.3868 322.266 79.0552 323.605 78.0649C324.956 77.0746 326.589 76.5794 328.503 76.5794C331.139 76.5794 333.254 77.7169 334.846 79.992L336.291 77.001H346.509V83.2038H344.582V95.79C344.582 98.1052 344.026 100.046 342.916 101.611C341.818 103.177 340.266 104.348 338.259 105.124C336.251 105.914 333.896 106.309 331.193 106.309ZM332.297 92.9998C332.926 92.9998 333.501 92.8057 334.023 92.4176C334.545 92.0296 334.859 91.6481 334.966 91.2734V83.9465C334.458 82.9562 333.514 82.461 332.136 82.461C331.039 82.461 330.155 82.9361 329.486 83.8863C328.831 84.8364 328.503 86.1279 328.503 87.7605C328.503 89.3263 328.831 90.5909 329.486 91.5545C330.155 92.518 331.092 92.9998 332.297 92.9998Z" fill="#02A4FA"/>
</svg>
